<svg width="14" height="14" viewBox="0 0 14 14" fill="none" xmlns="http://www.w3.org/2000/svg">
<path d="M11.2028 9.85186C11.1006 9.74966 11.0866 9.57326 11.165 9.45146C11.781 8.50366 12.1422 7.37526 12.1422 6.16286C12.1422 2.81406 9.4178 0.0910645 6.0718 0.0910645C2.723 0.0910645 0 2.81406 0 6.16286C0 9.51026 2.723 12.2333 6.0718 12.2333C7.3752 12.2333 8.582 11.8147 9.5732 11.1119C9.6894 11.0279 9.8644 11.0391 9.9666 11.1399L12.1366 13.3099C12.1506 13.3239 12.166 13.3379 12.1814 13.3491C12.2066 13.3701 12.3116 13.4681 12.4124 13.5703L12.67 13.8265C12.7722 13.9273 12.9374 13.9273 13.0382 13.8265L13.923 12.9417C14.0252 12.8395 14.0252 12.6743 13.9244 12.5721L11.2028 9.85186ZM9.744 8.99086C9.5438 9.25126 9.3184 9.48926 9.0692 9.70066C8.26 10.3881 7.2142 10.8053 6.0718 10.8053C3.5112 10.8053 1.428 8.72206 1.428 6.16286C1.428 3.60366 3.5112 1.51906 6.0718 1.51906C8.631 1.51906 10.7142 3.60226 10.7142 6.16286C10.7142 7.22686 10.3488 8.20686 9.744 8.99086Z" fill="#CACCCF"/>
</svg>
