<svg width="24" height="24" viewBox="0 0 24 24" fill="none" xmlns="http://www.w3.org/2000/svg">
<path d="M23.4696 10.2C22.62 9.53044 21.0336 10.1016 19.7976 11.4744C18.6432 11.1528 17.6184 11.232 16.7448 11.724C15.072 12.6672 14.4384 14.8368 14.2032 16.4856C14.1672 16.74 14.1336 16.9992 14.0976 17.2584C13.7232 20.112 13.368 22.8096 9.98402 22.8096C9.92882 22.8096 9.87362 22.8096 9.81602 22.8072C8.85602 22.7832 8.16482 22.4856 7.70402 21.8952C6.85442 20.8056 7.00082 19.0248 7.10882 18.2856C7.44482 18.1344 7.68242 17.8032 7.69442 17.412L7.74482 15.9504L9.53762 15.4176C9.76082 15.3504 9.93362 15.2088 10.0584 15.0336C10.38 15.1056 10.7808 15.0888 11.064 14.9112C11.5608 14.6016 12.2856 14.0064 13.188 12.8808C14.1744 11.6496 14.4168 10.6584 14.4408 10.0152C14.4528 9.55684 14.1336 9.09124 13.896 8.96164C13.6584 8.83204 13.6152 9.07444 13.6608 9.53044C13.728 10.2168 13.62 11.2608 12.7344 12.396C12.7176 12.4152 12.7032 12.4296 12.6888 12.4488L12.696 12.3984C12.9072 12.072 13.0896 11.7288 13.2288 11.3616C14.6688 7.54804 11.556 3.09844 11.4216 2.91124C11.3928 2.87044 11.3544 2.84404 11.316 2.81284C11.4048 2.60884 11.3832 2.42404 11.2344 2.32804C11.0016 2.17684 10.6368 1.72324 10.4256 1.31524L10.0512 0.600043C9.84242 0.194443 9.40082 0.122443 9.06962 0.439243L8.14082 1.34164C7.80722 1.65844 7.87202 2.08804 8.27762 2.30164L8.93282 2.63764C9.33842 2.85124 9.78242 3.23524 9.92642 3.49684C10.0344 3.69124 10.284 3.72004 10.5408 3.58804C10.8048 3.97204 13.368 7.86244 12.192 10.9752C12.144 11.1024 12.0696 11.22 12.0072 11.3424L12 11.3448C11.928 11.328 11.8584 11.3016 11.784 11.3016C11.5992 11.3016 11.4264 11.3568 11.2824 11.448L11.5008 11.6568C11.3688 11.8176 11.28 12.0144 11.28 12.2376C11.28 12.2928 11.292 12.3456 11.3016 12.3984C10.8888 12.8496 10.3728 13.2528 9.74882 13.596C9.51842 13.4664 9.24002 13.4256 8.96882 13.5072L6.78482 14.1552L4.44722 13.416C4.18082 13.332 3.90242 13.368 3.67442 13.4928C2.56082 12.8328 1.80242 11.9904 1.41602 10.9752C0.184823 7.71364 3.06242 3.59524 3.09122 3.55444C3.09362 3.54724 3.09362 3.54004 3.10082 3.53284C3.10082 3.53284 3.16802 3.59764 3.25202 3.67204C3.33602 3.75124 3.51842 3.60244 3.66242 3.34084C3.80402 3.07684 4.25282 2.69284 4.65842 2.48164L5.31122 2.14324C5.71922 1.93204 5.78162 1.50244 5.45042 1.18324L4.51922 0.283243C4.18802 -0.0359568 3.75122 0.0360432 3.53762 0.444043L3.16562 1.15924C2.95202 1.56724 2.58962 2.01844 2.35682 2.17204C2.11922 2.32084 2.01602 2.52484 2.11922 2.62084L2.30882 2.79844C2.26322 2.82964 2.22242 2.86324 2.18642 2.91124C2.05202 3.09844 -1.06078 7.54804 0.379223 11.3616C0.864023 12.6384 1.79522 13.6776 3.15842 14.4696C3.19442 14.8512 3.45602 15.192 3.84482 15.3168L5.75282 15.9192L5.70242 17.3424C5.69522 17.6376 5.81762 17.9064 6.01442 18.0984C5.88242 18.9792 5.70722 21.1344 6.82802 22.572C7.49762 23.4312 8.49362 23.8824 9.78962 23.9136C9.85922 23.9184 9.92642 23.9184 9.99362 23.9184C14.34 23.9184 14.8152 20.3112 15.1968 17.4048C15.2304 17.1504 15.264 16.896 15.3 16.644C15.5832 14.6592 16.2888 13.2552 17.2896 12.6912C17.7912 12.4056 18.3936 12.3264 19.08 12.4464C18.2184 13.8696 18.1104 15.3552 18.8952 15.9792C19.8048 16.6992 21.5664 15.9888 22.8288 14.3928C24.0912 12.7968 24.3768 10.92 23.4696 10.2ZM12.5304 12.6384C12.456 12.7272 12.3816 12.8232 12.3096 12.9048C12.3816 12.8136 12.4536 12.7224 12.5208 12.6288L12.5304 12.6384ZM21.2064 13.0728C20.7336 13.6728 20.0736 13.9392 19.7328 13.668C19.4832 13.4712 19.476 13.0416 19.6728 12.5904C19.8528 12.648 20.0352 12.7104 20.2224 12.7896C20.508 12.9096 20.8296 12.78 20.9496 12.4968C21.0696 12.216 20.9376 11.8896 20.6544 11.7696C20.5704 11.7336 20.4912 11.7072 20.4072 11.6784C20.7936 11.3952 21.1992 11.3088 21.4416 11.5032C21.7848 11.7744 21.6768 12.4776 21.2064 13.0728Z" fill="#DBDDE0"/>
</svg>
