<svg width="20" height="24" viewBox="0 0 20 24" fill="none" xmlns="http://www.w3.org/2000/svg">
<path d="M19.4024 22.9321C19.3064 22.0129 19.2824 21.0865 19.1912 20.1649C19.0544 18.7849 18.8576 17.4121 18.4496 16.0801C18.2288 15.3673 17.8928 14.7481 17.2232 14.3545C16.5824 13.9777 15.884 13.7545 15.1832 13.5361C14.9384 13.4593 14.9816 13.6321 14.996 13.7569C15.0608 14.3593 15.0056 14.9545 14.8808 15.5425C14.84 15.7321 14.9048 15.8185 15.068 15.9121C15.7592 16.2985 16.1528 16.8889 16.196 17.6881C16.2392 18.5113 16.0712 19.3201 16.0208 20.1361C15.9872 20.6905 15.9272 21.2473 15.6944 21.7633C15.4136 22.3873 14.9288 22.6345 14.2664 22.5073C14.0144 22.4593 13.8488 22.3441 13.8896 22.0657C13.9304 21.7921 14.12 21.6961 14.372 21.7465C14.6888 21.8089 14.8736 21.6601 15.0032 21.4009C15.092 21.2209 15.14 21.0241 15.1592 20.8249C15.2528 19.9057 15.3536 18.9865 15.428 18.0649C15.4952 17.2321 15.0488 16.6009 14.3096 16.4329C13.5464 16.2601 12.8888 16.6057 12.5744 17.3833C12.3224 18.0049 12.116 18.6457 11.876 19.2745C11.7392 19.6297 11.6216 19.9873 11.5496 20.3593C11.456 20.8417 11.552 21.0193 11.9984 21.2209C12.212 21.3169 12.3152 21.4681 12.2408 21.6961C12.1664 21.9265 11.9984 21.9913 11.768 21.9481C11.1104 21.8233 10.7288 21.3553 10.7408 20.6809C10.7456 20.4049 10.7864 20.1385 10.8632 19.8745C11.1464 18.8953 11.5184 17.9473 11.8976 17.0017C12.2384 16.1521 12.9176 15.6841 13.8416 15.6193C14.0216 15.6049 14.0984 15.5545 14.132 15.3793C14.2448 14.7961 14.2616 14.2129 14.2088 13.6225C14.1848 13.3441 14.0768 13.1929 13.7864 13.1473C13.5512 13.1113 13.316 13.0321 13.0952 12.9409C12.8744 12.8521 12.7784 12.8785 12.7016 13.1281C12.4304 14.0353 12.0512 14.9017 11.612 15.7417C11.4008 16.1473 11.156 16.5361 10.8848 17.0065C10.7768 16.4113 10.6952 15.9049 10.5896 15.4009C10.5416 15.1753 10.5464 14.9713 10.6448 14.7577C10.7 14.6353 10.8464 14.4913 10.7 14.3593C10.4672 14.1481 10.2128 13.9633 9.96559 13.7689C9.95839 13.7617 9.92479 13.7785 9.91039 13.7905C9.67039 13.9969 9.39679 14.1745 9.20959 14.4193C9.09679 14.5657 9.31519 14.7577 9.36319 14.9353C9.37279 14.9761 9.39439 15.0193 9.38959 15.0577C9.28879 15.6769 9.18319 16.2937 9.07039 16.9705C8.99119 16.8769 8.95519 16.8409 8.93119 16.8001C8.29759 15.7777 7.78159 14.7025 7.39039 13.5649C7.31119 13.3321 7.31839 12.9721 7.11919 12.8977C6.93199 12.8281 6.65119 13.0129 6.41119 13.0801C6.28639 13.1161 6.17599 13.1497 6.12799 13.2961C6.03679 13.5793 5.90719 13.8481 5.83999 14.1313C5.39839 15.9745 5.50879 17.7985 6.07759 19.6009C6.16399 19.8745 6.26719 20.0233 6.57919 20.0833C7.18159 20.2033 7.50559 20.8633 7.29919 21.4345C7.08319 22.0369 6.43279 22.3201 5.86639 22.0609C5.29519 21.8017 5.05039 21.0985 5.38159 20.5753C5.50159 20.3857 5.48719 20.2393 5.42239 20.0521C4.81279 18.3025 4.64959 16.5121 4.93039 14.6785C4.99519 14.2561 5.13679 13.8529 5.23279 13.4065C4.39519 13.6513 3.59119 13.8553 2.86639 14.2777C2.33359 14.5873 1.92079 14.9929 1.68799 15.5833C1.40959 16.2913 1.24159 17.0257 1.09999 17.7697C0.773592 19.4977 0.672792 21.2521 0.540792 23.0017C0.504792 23.4793 0.718392 23.7745 1.09759 23.9977H18.8312C19.2824 23.7841 19.4552 23.4433 19.4024 22.9321ZM5.99119 8.17212C6.15439 8.21532 6.23119 8.29452 6.29359 8.44332C6.66079 9.32172 7.11439 10.1473 7.78879 10.8337C8.32159 11.3785 8.93839 11.7865 9.72079 11.8657C10.7048 11.9665 11.4728 11.5273 12.1376 10.8625C12.8144 10.1833 13.2848 9.36732 13.652 8.48412C13.7024 8.36412 13.7192 8.21292 13.9016 8.19612C14.5568 8.13372 15.068 7.09692 14.96 6.46572C14.9288 6.28572 14.8616 6.12012 14.6648 6.10812C14.42 6.09132 14.4656 5.96172 14.5016 5.81052C14.6312 5.26812 14.6864 4.71372 14.7128 4.23852C14.7296 3.75612 14.684 3.35532 14.588 2.97132C14.4416 2.39052 14.1416 1.89132 13.5968 1.61292C13.2752 1.44732 13.028 1.26492 12.92 0.907323C12.8792 0.768123 12.7424 0.676923 12.6296 0.583323C12.212 0.237723 11.7176 0.0865228 11.204 0.0361228C9.66559 -0.115077 8.23039 0.213723 6.96079 1.10892C6.08479 1.72332 5.48239 2.53452 5.35999 3.63852C5.27839 4.36572 5.31919 5.08572 5.45599 5.80332C5.48479 5.95692 5.54719 6.11772 5.27599 6.11292C5.15359 6.11052 5.07439 6.21372 5.03359 6.33372C4.80799 6.97692 5.32879 7.99692 5.99119 8.17212V8.17212Z" fill="#DBDDE0"/>
</svg>
