<svg width="30" height="41" viewBox="0 0 30 41" fill="none" xmlns="http://www.w3.org/2000/svg">
<path d="M22.912 20.9659C22.912 22.0619 23.8 22.9459 24.896 22.9459C25.984 22.9459 26.876 22.0579 26.876 20.9659C26.876 19.8699 25.988 18.9859 24.896 18.9859C23.804 18.9859 22.912 19.8699 22.912 20.9659ZM21.508 20.3299C21.156 20.3299 20.884 20.6139 20.884 20.9659V24.7899C20.884 25.1419 21.144 25.4499 21.492 25.4499H26.164C26.516 25.4499 26.8 25.1499 26.8 24.7979C26.804 24.4459 26.516 24.1459 26.164 24.1459H22.34C22.228 24.1459 22.124 24.0579 22.124 23.9419V20.9659C22.128 20.6139 21.86 20.3299 21.508 20.3299ZM3.94799 25.1979H19.872C20.104 25.1979 20.268 25.0219 20.268 24.7899V21.7499C20.268 21.5139 20.104 21.2939 19.872 21.2939H5.64799C4.47199 21.2939 3.52799 22.1979 3.52799 23.2699V24.7899C3.52399 25.0219 3.71199 25.1979 3.94799 25.1979ZM18.28 12.3739C20.788 14.0699 23.328 14.6939 23.956 13.7659C24.588 12.8379 23.068 10.7099 20.56 9.00987C18.056 7.31387 15.516 6.69387 14.884 7.61787C14.256 8.54587 15.776 10.6779 18.28 12.3739ZM19.788 12.1299C19.652 12.3339 19.096 12.1979 18.552 11.8259C18.004 11.4579 17.668 10.9899 17.808 10.7899C17.948 10.5899 18.5 10.7219 19.044 11.0939C19.592 11.4619 19.924 11.9259 19.788 12.1299ZM22.7 13.0179C22.56 13.2219 22.012 13.0859 21.464 12.7179C20.916 12.3419 20.588 11.8819 20.724 11.6779C20.86 11.4779 21.416 11.6099 21.964 11.9819C22.508 12.3539 22.84 12.8179 22.7 13.0179ZM18.98 9.25787C19.116 9.05787 19.672 9.18987 20.216 9.56187C20.768 9.92987 21.092 10.3979 20.96 10.5979C20.82 10.7979 20.268 10.6659 19.72 10.2979C19.172 9.92587 18.844 9.46187 18.98 9.25787ZM16.048 8.31787C16.188 8.11787 16.744 8.24987 17.288 8.62187C17.836 8.98987 18.172 9.45787 18.032 9.65787C17.892 9.85787 17.336 9.72587 16.796 9.35387C16.244 8.98587 15.912 8.51787 16.048 8.31787ZM24.62 12.7819C24.964 12.2659 24.952 11.5899 24.592 11.0859C24.096 10.3939 23.244 9.38987 21.956 8.45387L24.032 5.79787C24.132 5.66987 24.18 5.51787 24.18 5.35787V0.917872C24.18 0.525872 23.86 0.205872 23.464 0.205872C23.072 0.205872 22.752 0.521872 22.752 0.917872V5.10987L20.748 7.68987C20.748 7.68987 19.088 6.54987 16.984 6.15787C16.52 6.06987 16.048 6.25387 15.764 6.62987L15.752 6.64587C15.752 6.64587 18.176 6.82587 20.884 8.72187C23.828 10.8059 24.62 12.7819 24.62 12.7819ZM29.756 26.0099H0.23999C0.23999 27.8899 1.76399 29.4139 3.65199 29.4139H13.196C13.196 29.4139 13.2 29.4179 13.2 29.4219V33.1819C12.892 33.2019 12.644 33.5019 12.644 33.8779V36.3179C12.644 36.6939 12.892 36.9939 13.2 37.0139V39.5899C13.2 39.9379 13.48 40.2019 13.832 40.2019H16.16C16.512 40.2019 16.796 39.9419 16.796 39.5899V29.4179H26.344C28.228 29.4139 29.756 27.8899 29.756 26.0099Z" fill="#F25C27"/>
</svg>
