<svg width="22" height="22" viewBox="0 0 22 22" fill="none" xmlns="http://www.w3.org/2000/svg">
<path d="M11.0048 0.5C5.2016 0.5 0.5 5.2016 0.5 10.9952C0.5 16.7984 5.2016 21.5 11.0048 21.5C16.7984 21.5 21.5 16.7984 21.5 10.9952C21.5 5.2016 16.7984 0.5 11.0048 0.5ZM12.2072 18.2864C11.6888 18.3728 11.1944 18.416 10.7168 18.416C10.2152 18.416 9.704 18.3728 9.2024 18.2864C9.1256 17.7848 9.0824 17.2904 9.0824 16.796C9.0824 16.3016 9.1256 15.8 9.2024 15.2816C9.704 15.2048 10.208 15.1616 10.6928 15.1616C11.1872 15.1616 11.6888 15.2048 12.2072 15.2816C12.2936 15.8024 12.3296 16.304 12.3296 16.7792C12.3296 17.2832 12.2936 17.7848 12.2072 18.2864ZM14.9264 9.4184C14.684 9.8864 14.3816 10.2752 14.0336 10.5968C13.688 10.9184 13.3328 11.1776 12.9608 11.3672C12.596 11.5664 12.2936 11.7128 12.068 11.8088V13.6712C11.5928 13.748 11.132 13.7912 10.6904 13.7912C10.2488 13.7912 9.8168 13.748 9.4088 13.6712V10.1552C9.7208 10.1024 10.0496 10.0256 10.388 9.9224C10.7264 9.8192 11.0456 9.68 11.3312 9.4976C11.6168 9.3248 11.852 9.0992 12.032 8.84C12.2144 8.5712 12.308 8.2424 12.308 7.844C12.308 7.2632 12.092 6.8144 11.6768 6.5096C11.252 6.1976 10.6904 6.0512 9.9968 6.0512C9.7112 6.0512 9.4592 6.0608 9.2336 6.0776C9.008 6.0944 8.8016 6.1304 8.6096 6.1808C8.42 6.224 8.2208 6.284 8.0216 6.3464C7.832 6.4064 7.6232 6.476 7.3976 6.5624C7.208 6.2072 7.052 5.8352 6.9296 5.4536C6.8096 5.072 6.7304 4.6736 6.704 4.268C7.0592 4.148 7.388 4.0424 7.6904 3.956C7.9856 3.86 8.2784 3.7904 8.564 3.74C8.8496 3.6872 9.1352 3.644 9.4208 3.6272C9.7064 3.6104 10.0184 3.5936 10.3376 3.5936C11.9744 3.5936 13.2128 3.9656 14.0432 4.7096C14.8736 5.4536 15.2912 6.4664 15.2912 7.7672C15.2984 8.4056 15.1688 8.9528 14.9264 9.4184Z" fill="#DBDDE0"/>
</svg>
